<svg xmlns="http://www.w3.org/2000/svg">
<symbol id="user" fill="currentColor" viewBox="0 0 448 512"><path d="M320 128a96 96 0 1 0 -192 0 96 96 0 1 0 192 0zM96 128a128 128 0 1 1 256 0A128 128 0 1 1 96 128zM32 480l384 0c-1.2-79.7-66.2-144-146.3-144l-91.4 0c-80 0-145 64.3-146.3 144zM0 482.3C0 383.8 79.8 304 178.3 304l91.4 0C368.2 304 448 383.8 448 482.3c0 16.4-13.3 29.7-29.7 29.7L29.7 512C13.3 512 0 498.7 0 482.3z"/></symbol>
<symbol id="logout" fill="currentColor" viewBox="0 0 512 512"><path d="M507.3 267.3c6.2-6.2 6.2-16.4 0-22.6l-128-128c-6.2-6.2-16.4-6.2-22.6 0s-6.2 16.4 0 22.6L457.4 240 176 240c-8.8 0-16 7.2-16 16s7.2 16 16 16l281.4 0L356.7 372.7c-6.2 6.2-6.2 16.4 0 22.6s16.4 6.2 22.6 0l128-128zM176 64c8.8 0 16-7.2 16-16s-7.2-16-16-16L80 32C35.8 32 0 67.8 0 112L0 400c0 44.2 35.8 80 80 80l96 0c8.8 0 16-7.2 16-16s-7.2-16-16-16l-96 0c-26.5 0-48-21.5-48-48l0-288c0-26.5 21.5-48 48-48l96 0z"/></symbol>
<symbol id="plus" fill="currentColor" viewBox="0 0 448 512"><path d="M240 64c0-8.8-7.2-16-16-16s-16 7.2-16 16l0 176L32 240c-8.8 0-16 7.2-16 16s7.2 16 16 16l176 0 0 176c0 8.8 7.2 16 16 16s16-7.2 16-16l0-176 176 0c8.8 0 16-7.2 16-16s-7.2-16-16-16l-176 0 0-176z"/></symbol>
<symbol id="users" fill="currentColor" viewBox="0 0 640 512"><path d="M96 80a48 48 0 1 1 96 0A48 48 0 1 1 96 80zm128 0A80 80 0 1 0 64 80a80 80 0 1 0 160 0zm96 80a64 64 0 1 1 0 128 64 64 0 1 1 0-128zm0 160a96 96 0 1 0 0-192 96 96 0 1 0 0 192zm-58.7 64l117.3 0c54.2 0 98.4 42.5 101.2 96l-319.7 0c2.8-53.5 47-96 101.2-96zm0-32C187.7 352 128 411.7 128 485.3c0 14.7 11.9 26.7 26.7 26.7l330.7 0c14.7 0 26.7-11.9 26.7-26.7C512 411.7 452.3 352 378.7 352l-117.3 0zM512 32a48 48 0 1 1 0 96 48 48 0 1 1 0-96zm0 128A80 80 0 1 0 512 0a80 80 0 1 0 0 160zm16 64c44.2 0 80 35.8 80 80c0 8.8 7.2 16 16 16s16-7.2 16-16c0-61.9-50.1-112-112-112l-84 0c2.6 10.2 4 21 4 32l80 0zm-336 0c0-11 1.4-21.8 4-32l-84 0C50.1 192 0 242.1 0 304c0 8.8 7.2 16 16 16s16-7.2 16-16c0-44.2 35.8-80 80-80l80 0z"/></symbol>
<symbol id="edit-user" fill="currentColor" viewBox="0 0 640 512"><path d="M320 128a96 96 0 1 0 -192 0 96 96 0 1 0 192 0zM96 128a128 128 0 1 1 256 0A128 128 0 1 1 96 128zM32 480l290.2 0-1 3.8c-2.4 9.5-1.8 19.3 1.4 28.2l-293 0C13.3 512 0 498.7 0 482.3C0 383.8 79.8 304 178.3 304l91.4 0c44.2 0 84.6 16.1 115.8 42.7l-22.7 22.7c-25.3-20.9-57.7-33.4-93.1-33.4l-91.4 0c-80 0-145 64.3-146.3 144zM582.8 264c-6.2-6.2-16.4-6.2-22.6 0l-24.8 24.8 40 40L600.2 304c6.2-6.2 6.2-16.4 0-22.6L582.8 264zM406.5 417.7c-2.1 2.1-3.5 4.6-4.2 7.4l-12.3 49 49-12.3c2.8-.7 5.4-2.2 7.4-4.2L552.7 351.4l-40-40L406.5 417.7zM537.5 241.4c18.7-18.7 49.1-18.7 67.9 0l17.4 17.4c18.7 18.7 18.7 49.1 0 67.9L469.1 480.3c-6.2 6.2-13.9 10.5-22.3 12.6l-74.9 18.7c-5.5 1.4-11.2-.2-15.2-4.2s-5.6-9.7-4.2-15.2l18.7-74.9c2.1-8.4 6.5-16.1 12.6-22.3L537.5 241.4z"/></symbol>
<symbol id="save" fill="currentColor" viewBox="0 0 448 512"><path d="M32 96c0-17.7 14.3-32 32-32l0 96c0 17.7 14.3 32 32 32l192 0c17.7 0 32-14.3 32-32l0-94.2c4.5 1.6 8.7 4.2 12.1 7.6l74.5 74.5c6 6 9.4 14.1 9.4 22.6L416 416c0 17.7-14.3 32-32 32L64 448c-17.7 0-32-14.3-32-32L32 96zM96 64l192 0 0 96L96 160l0-96zM0 96L0 416c0 35.3 28.7 64 64 64l320 0c35.3 0 64-28.7 64-64l0-245.5c0-17-6.7-33.3-18.7-45.3L354.7 50.7c-12-12-28.3-18.7-45.3-18.7L64 32C28.7 32 0 60.7 0 96zM272 320a48 48 0 1 1 -96 0 48 48 0 1 1 96 0zm-48-80a80 80 0 1 0 0 160 80 80 0 1 0 0-160z"/></symbol>
<symbol id="reveal" fill="currentColor" viewBox="0 0 512 512"><path d="M480 256A224 224 0 1 1 32 256a224 224 0 1 1 448 0zM0 256a256 256 0 1 0 512 0A256 256 0 1 0 0 256zM235.3 379.3l112-112c6.2-6.2 6.2-16.4 0-22.6l-112-112c-6.2-6.2-16.4-6.2-22.6 0s-6.2 16.4 0 22.6L313.4 256 212.7 356.7c-6.2 6.2-6.2 16.4 0 22.6s16.4 6.2 22.6 0z"/></symbol>
<symbol id="globe" fill="currentColor" viewBox="0 0 512 512"><path d="M256 480c16.7 0 40.4-14.4 61.9-57.3c9.9-19.8 18.2-43.7 24.1-70.7l-172 0c5.9 27 14.2 50.9 24.1 70.7C215.6 465.6 239.3 480 256 480zM164.3 320l183.4 0c2.8-20.2 4.3-41.7 4.3-64s-1.5-43.8-4.3-64l-183.4 0c-2.8 20.2-4.3 41.7-4.3 64s1.5 43.8 4.3 64zM170 160l172 0c-5.9-27-14.2-50.9-24.1-70.7C296.4 46.4 272.7 32 256 32s-40.4 14.4-61.9 57.3C184.2 109.1 175.9 133 170 160zm210 32c2.6 20.5 4 41.9 4 64s-1.4 43.5-4 64l90.8 0c6-20.3 9.3-41.8 9.3-64s-3.2-43.7-9.3-64L380 192zm78.5-32c-25.9-54.5-73.1-96.9-130.9-116.3c21 28.3 37.6 68.8 47.2 116.3l83.8 0zm-321.1 0c9.6-47.6 26.2-88 47.2-116.3C126.7 63.1 79.4 105.5 53.6 160l83.7 0zm-96 32c-6 20.3-9.3 41.8-9.3 64s3.2 43.7 9.3 64l90.8 0c-2.6-20.5-4-41.9-4-64s1.4-43.5 4-64l-90.8 0zM327.5 468.3c57.8-19.5 105-61.8 130.9-116.3l-83.8 0c-9.6 47.6-26.2 88-47.2 116.3zm-143 0c-21-28.3-37.5-68.8-47.2-116.3l-83.7 0c25.9 54.5 73.1 96.9 130.9 116.3zM256 512A256 256 0 1 1 256 0a256 256 0 1 1 0 512z"/></symbol>

</svg>
